# xmcd
#
# Track frame offsets:
#	150
#	21925
#	41122
#	64497
#	87110
#	108242
#	128312
#	146775
#	162727
#	180270
#
# Disc length: 2698 seconds
#
# Revision: 1
# Processed by: cddbd v1.4PL0 Copyright (c) Steve Scherf et al.
# Submitted via: audiograbber 1.80.04
#
DISCID=850a880a
DTITLE=John Prestia Group - The Last One Taken
DYEAR=1900
DGENRE=Rock
TTITLE0=The Last One Taken
TTITLE1=The Other End
TTITLE2=You're The Rock
TTITLE3=Things Change
TTITLE4=Don't Blame The Messenger
TTITLE5=Not Then, Not Now, Not Ever
TTITLE6=Over The Edge
TTITLE7=Gotta Hand It To You
TTITLE8=Right Into The Storm
TTITLE9=Never Got The Chance
EXTD=
EXTT0=
EXTT1=
EXTT2=
EXTT3=
EXTT4=
EXTT5=
EXTT6=
EXTT7=
EXTT8=
EXTT9=
PLAYORDER=
